<svg width="275" height="82" viewBox="0 0 275 82" fill="none" xmlns="http://www.w3.org/2000/svg">
<g filter="url(#filter0_d)">
<rect x="4" width="74" height="74" rx="16.4444" fill="#C4C4C4"/>
</g>
<path d="M35.6621 27.2412H48.6055V50H35.6621V27.2412Z" fill="white"/>
<path d="M33.3164 50H52.0002V68H33.3164V50Z" fill="white"/>
<path d="M39.9919 13.0906C37.471 13.4186 34.9945 14.3581 32.8553 15.7851C28.9674 18.3821 26.3488 22.5125 25.6387 27.1924C25.4523 28.4067 25.4523 31.0568 25.6476 31.9875C25.6831 32.1648 25.7364 32.1736 26.908 32.2091C28.0797 32.2357 28.1507 32.2445 28.7188 32.5282C29.4112 32.865 29.997 33.4677 30.361 34.2122L30.6095 34.7175L30.6539 38.2274L30.6983 41.7373L31.2753 42.2425C32.0741 42.9427 33.8139 44.095 34.7992 44.5648C35.2519 44.7775 35.6425 44.9548 35.6691 44.9548C35.6957 44.9548 35.7135 42.0741 35.7223 38.5465V32.1471L38.8291 30.0198C40.5423 28.8498 41.9891 27.866 42.0513 27.8305C42.1223 27.7951 43.3916 28.6105 45.3533 29.9578L48.5399 32.1559L48.5666 41.1701L48.5843 50.1842H47.386H46.1877V59.092V67.9998H56.8394H67.5L67.4467 67.6629C67.2958 66.7589 66.5413 65.8637 65.7158 65.6155C65.5117 65.5534 64.6329 65.518 63.4612 65.518H61.5439V57.8245V50.131L61.0113 50.1399L60.4787 50.1487V41.1701V32.1914L59.6355 31.6507L58.7922 31.11V29.683C58.7833 26.9442 58.3129 24.8436 57.1501 22.3884C54.8422 17.5135 50.3063 14.1188 44.8118 13.1704C43.7378 12.9842 41.1547 12.9399 39.9919 13.0906Z" fill="#555273"/>
<path d="M39.0418 34.9393C38.376 35.2673 38.3317 35.4091 38.305 37.749L38.2695 39.8142H39.5744H40.8703L40.8437 37.749C40.8171 35.3825 40.7727 35.2318 40.1247 34.9304C39.6543 34.7177 39.4767 34.7177 39.0418 34.9393Z" fill="#555273"/>
<path d="M44.3419 34.8241C44.049 34.8773 43.5608 35.4091 43.4898 35.737C43.4632 35.8966 43.4365 36.8804 43.4365 37.9174V39.8142H44.7059H45.9752L45.9663 37.749C45.9574 35.4091 45.9219 35.2584 45.2562 34.9393C44.8923 34.762 44.7502 34.7443 44.3419 34.8241Z" fill="#555273"/>
<path d="M38.2871 44.9993V47.5254H39.5742H40.8613V44.9993V42.4732H39.5742H38.2871V44.9993Z" fill="#555273"/>
<path d="M43.4365 44.9995V47.5344L44.7059 47.5078L45.9663 47.4812L45.9752 45.0881C45.9752 43.7675 45.9574 42.6418 45.9397 42.5798C45.913 42.5 45.5757 42.4734 44.6703 42.4734H43.4365V44.9995Z" fill="#555273"/>
<path d="M32.0376 57.559C31.3098 58.791 30.644 59.9255 30.5553 60.0673L30.3955 60.3333L31.8779 60.3244C32.6945 60.3155 35.5793 60.3067 38.2867 60.2978L43.2131 60.2801L44.6333 57.8781C45.4144 56.5485 46.0713 55.4318 46.0802 55.3963C46.0979 55.3608 43.2397 55.3254 39.7335 55.3254H33.3514L32.0376 57.559Z" fill="#555273"/>
<path d="M38.2871 65.4739V68H39.5742H40.8613V65.4739V62.9478H39.5742H38.2871V65.4739Z" fill="#555273"/>
<path d="M27.3075 65.66C27.1034 65.7398 26.7572 65.9525 26.5353 66.1475L26.127 66.5109V67.2555V68H29.7219H33.3169V66.7591V65.5182L30.503 65.5271C28.2484 65.5271 27.6093 65.5625 27.3075 65.66Z" fill="#555273"/>
<path d="M25.7148 59.9998H26.7148V67.9998H25.7148V59.9998Z" fill="white"/>
<path d="M21.7148 34.9998C21.7148 33.3429 23.058 31.9998 24.7148 31.9998H27.7148C29.3717 31.9998 30.7148 33.3429 30.7148 34.9998V56.9998C30.7148 58.6566 29.3717 59.9998 27.7148 59.9998H24.7148C23.058 59.9998 21.7148 58.6566 21.7148 56.9998V34.9998Z" fill="white"/>
<path d="M133.392 30.8V56H128.388V45.308H118.056V56H113.052V30.8H118.056V41.384H128.388V30.8H133.392ZM145.982 56.288C143.99 56.288 142.31 55.832 140.942 54.92C139.574 53.984 138.554 52.772 137.882 51.284C137.234 49.772 136.91 48.152 136.91 46.424C136.91 44.696 137.234 43.088 137.882 41.6C138.554 40.088 139.574 38.864 140.942 37.928C142.31 36.992 144.002 36.524 146.018 36.524C148.682 36.524 150.794 37.376 152.354 39.08C153.938 40.784 154.73 43.244 154.73 46.46V47.828H141.698V48.116C141.698 49.268 142.094 50.264 142.886 51.104C143.678 51.92 144.674 52.328 145.874 52.328C146.81 52.328 147.602 52.112 148.25 51.68C148.898 51.248 149.366 50.66 149.654 49.916H154.55C154.046 51.788 153.062 53.324 151.598 54.524C150.134 55.7 148.262 56.288 145.982 56.288ZM149.942 44.588C149.894 43.076 149.51 41.96 148.79 41.24C148.07 40.52 147.122 40.16 145.946 40.16C144.698 40.16 143.714 40.556 142.994 41.348C142.274 42.14 141.89 43.22 141.842 44.588H149.942ZM166.35 58.7C166.014 59.588 165.654 60.368 165.27 61.04C164.886 61.736 164.202 62.408 163.218 63.056C162.258 63.704 160.986 64.028 159.402 64.028C158.73 64.028 158.154 63.968 157.674 63.848C157.194 63.752 156.894 63.692 156.774 63.668V60.176C157.158 60.272 157.674 60.32 158.322 60.32C159.114 60.32 159.75 60.188 160.23 59.924C160.71 59.66 161.094 59.312 161.382 58.88C161.67 58.448 161.958 57.848 162.246 57.08L162.858 55.568L156.018 36.992H161.058L165.162 50.06H165.378L169.698 36.992H174.738L166.35 58.7ZM183.663 56.288C181.311 56.288 179.475 55.388 178.155 53.588C176.835 51.788 176.175 49.412 176.175 46.46C176.175 43.46 176.835 41.06 178.155 39.26C179.499 37.436 181.371 36.524 183.771 36.524C185.379 36.524 186.639 36.896 187.551 37.64C188.463 38.36 189.111 39.128 189.495 39.944H189.783V36.992H194.787V56H189.783V52.724H189.495C189.063 53.612 188.391 54.428 187.479 55.172C186.567 55.916 185.295 56.288 183.663 56.288ZM185.499 52.256C186.915 52.256 187.983 51.68 188.703 50.528C189.423 49.376 189.783 47.996 189.783 46.388C189.783 44.78 189.423 43.412 188.703 42.284C188.007 41.156 186.939 40.592 185.499 40.592C184.059 40.592 182.991 41.156 182.295 42.284C181.599 43.412 181.251 44.78 181.251 46.388C181.251 48.02 181.599 49.412 182.295 50.564C182.991 51.692 184.059 52.256 185.499 52.256ZM207.787 56.324C205.771 56.324 204.079 55.856 202.711 54.92C201.343 53.984 200.323 52.76 199.651 51.248C199.003 49.736 198.679 48.116 198.679 46.388C198.679 44.684 199.003 43.088 199.651 41.6C200.323 40.088 201.343 38.864 202.711 37.928C204.079 36.992 205.771 36.524 207.787 36.524C210.331 36.524 212.335 37.256 213.799 38.72C215.287 40.16 216.187 41.984 216.499 44.192H211.639C211.471 43.112 211.063 42.248 210.415 41.6C209.791 40.928 208.927 40.592 207.823 40.592C206.359 40.592 205.279 41.156 204.583 42.284C203.911 43.412 203.575 44.78 203.575 46.388C203.575 48.044 203.911 49.436 204.583 50.564C205.279 51.692 206.359 52.256 207.823 52.256C208.903 52.256 209.767 51.932 210.415 51.284C211.063 50.612 211.471 49.736 211.639 48.656H216.499C216.187 50.864 215.287 52.7 213.799 54.164C212.335 55.604 210.331 56.324 207.787 56.324ZM226.624 56.288C224.272 56.288 222.436 55.388 221.116 53.588C219.796 51.788 219.136 49.412 219.136 46.46C219.136 43.46 219.796 41.06 221.116 39.26C222.46 37.436 224.332 36.524 226.732 36.524C228.34 36.524 229.6 36.896 230.512 37.64C231.424 38.36 232.072 39.128 232.456 39.944H232.744V36.992H237.748V56H232.744V52.724H232.456C232.024 53.612 231.352 54.428 230.44 55.172C229.528 55.916 228.256 56.288 226.624 56.288ZM228.46 52.256C229.876 52.256 230.944 51.68 231.664 50.528C232.384 49.376 232.744 47.996 232.744 46.388C232.744 44.78 232.384 43.412 231.664 42.284C230.968 41.156 229.9 40.592 228.46 40.592C227.02 40.592 225.952 41.156 225.256 42.284C224.56 43.412 224.212 44.78 224.212 46.388C224.212 48.02 224.56 49.412 225.256 50.564C225.952 51.692 227.02 52.256 228.46 52.256ZM242.255 36.992H247.187V40.016H247.439C247.751 39.176 248.327 38.468 249.167 37.892C250.007 37.292 251.087 36.992 252.407 36.992C252.911 36.992 253.343 37.04 253.703 37.136L253.487 41.708C252.887 41.54 252.251 41.456 251.579 41.456C250.091 41.456 248.987 41.852 248.267 42.644C247.547 43.412 247.187 44.696 247.187 46.496V56H242.255V36.992ZM264.423 56.288C262.431 56.288 260.751 55.832 259.383 54.92C258.015 53.984 256.995 52.772 256.323 51.284C255.675 49.772 255.351 48.152 255.351 46.424C255.351 44.696 255.675 43.088 256.323 41.6C256.995 40.088 258.015 38.864 259.383 37.928C260.751 36.992 262.443 36.524 264.459 36.524C267.123 36.524 269.235 37.376 270.795 39.08C272.379 40.784 273.171 43.244 273.171 46.46V47.828H260.139V48.116C260.139 49.268 260.535 50.264 261.327 51.104C262.119 51.92 263.115 52.328 264.315 52.328C265.251 52.328 266.043 52.112 266.691 51.68C267.339 51.248 267.807 50.66 268.095 49.916H272.991C272.487 51.788 271.503 53.324 270.039 54.524C268.575 55.7 266.703 56.288 264.423 56.288ZM268.383 44.588C268.335 43.076 267.951 41.96 267.231 41.24C266.511 40.52 265.563 40.16 264.387 40.16C263.139 40.16 262.155 40.556 261.435 41.348C260.715 42.14 260.331 43.22 260.283 44.588H268.383Z" fill="#555273"/>
<defs>
<filter id="filter0_d" x="0.345679" y="0" width="81.3086" height="81.3086" filterUnits="userSpaceOnUse" color-interpolation-filters="sRGB">
<feFlood flood-opacity="0" result="BackgroundImageFix"/>
<feColorMatrix in="SourceAlpha" type="matrix" values="0 0 0 0 0 0 0 0 0 0 0 0 0 0 0 0 0 0 127 0"/>
<feOffset dy="3.65432"/>
<feGaussianBlur stdDeviation="1.82716"/>
<feColorMatrix type="matrix" values="0 0 0 0 0 0 0 0 0 0 0 0 0 0 0 0 0 0 0.25 0"/>
<feBlend mode="normal" in2="BackgroundImageFix" result="effect1_dropShadow"/>
<feBlend mode="normal" in="SourceGraphic" in2="effect1_dropShadow" result="shape"/>
</filter>
</defs>
</svg>
