<svg width="275" height="82" viewBox="0 0 275 82" fill="none" xmlns="http://www.w3.org/2000/svg">
<g filter="url(#filter0_d)">
<rect x="4" width="74" height="74" rx="16" fill="#C4C4C4"/>
</g>
<path d="M35.6621 27.2412H48.6055V50H35.6621V27.2412Z" fill="white"/>
<path d="M33.3164 50H52.0002V68H33.3164V50Z" fill="white"/>
<path d="M39.9919 13.0906C37.471 13.4186 34.9945 14.3581 32.8553 15.7851C28.9674 18.3821 26.3488 22.5125 25.6387 27.1924C25.4523 28.4067 25.4523 31.0568 25.6476 31.9875C25.6831 32.1648 25.7364 32.1736 26.908 32.2091C28.0797 32.2357 28.1507 32.2445 28.7188 32.5282C29.4112 32.865 29.997 33.4677 30.361 34.2122L30.6095 34.7175L30.6539 38.2274L30.6983 41.7373L31.2753 42.2425C32.0741 42.9427 33.8139 44.095 34.7992 44.5648C35.2519 44.7775 35.6425 44.9548 35.6691 44.9548C35.6957 44.9548 35.7135 42.0741 35.7223 38.5465V32.1471L38.8291 30.0198C40.5423 28.8498 41.9891 27.866 42.0513 27.8305C42.1223 27.7951 43.3916 28.6105 45.3533 29.9578L48.5399 32.1559L48.5666 41.1701L48.5843 50.1842H47.386H46.1877V59.092V67.9998H56.8394H67.5L67.4467 67.6629C67.2958 66.7589 66.5413 65.8637 65.7158 65.6155C65.5117 65.5534 64.6329 65.518 63.4612 65.518H61.5439V57.8245V50.131L61.0113 50.1399L60.4787 50.1487V41.1701V32.1914L59.6355 31.6507L58.7922 31.11V29.683C58.7833 26.9442 58.3129 24.8436 57.1501 22.3884C54.8422 17.5135 50.3063 14.1188 44.8118 13.1704C43.7378 12.9842 41.1547 12.9399 39.9919 13.0906Z" fill="#555273"/>
<path d="M39.0418 34.9393C38.376 35.2673 38.3317 35.4091 38.305 37.749L38.2695 39.8142H39.5744H40.8703L40.8437 37.749C40.8171 35.3825 40.7727 35.2318 40.1247 34.9304C39.6543 34.7177 39.4767 34.7177 39.0418 34.9393Z" fill="#555273"/>
<path d="M44.3419 34.8241C44.049 34.8773 43.5608 35.4091 43.4898 35.737C43.4632 35.8966 43.4365 36.8804 43.4365 37.9174V39.8142H44.7059H45.9752L45.9663 37.749C45.9574 35.4091 45.9219 35.2584 45.2562 34.9393C44.8923 34.762 44.7502 34.7443 44.3419 34.8241Z" fill="#555273"/>
<path d="M38.2871 44.9993V47.5254H39.5742H40.8613V44.9993V42.4732H39.5742H38.2871V44.9993Z" fill="#555273"/>
<path d="M43.4365 44.9995V47.5344L44.7059 47.5078L45.9663 47.4812L45.9752 45.0881C45.9752 43.7675 45.9574 42.6418 45.9397 42.5798C45.913 42.5 45.5757 42.4734 44.6703 42.4734H43.4365V44.9995Z" fill="#555273"/>
<path d="M32.0376 57.559C31.3098 58.791 30.644 59.9255 30.5553 60.0673L30.3955 60.3333L31.8779 60.3244C32.6945 60.3155 35.5793 60.3067 38.2867 60.2978L43.2131 60.2801L44.6333 57.8781C45.4144 56.5485 46.0713 55.4318 46.0802 55.3963C46.0979 55.3608 43.2397 55.3254 39.7335 55.3254H33.3514L32.0376 57.559Z" fill="#555273"/>
<path d="M38.2871 65.4739V68H39.5742H40.8613V65.4739V62.9478H39.5742H38.2871V65.4739Z" fill="#555273"/>
<path d="M27.3075 65.66C27.1034 65.7398 26.7572 65.9525 26.5353 66.1475L26.127 66.5109V67.2555V68H29.7219H33.3169V66.7591V65.5182L30.503 65.5271C28.2484 65.5271 27.6093 65.5625 27.3075 65.66Z" fill="#555273"/>
<path d="M25.7148 59.9998H26.7148V67.9998H25.7148V59.9998Z" fill="white"/>
<path d="M21.7148 34.9998C21.7148 33.3429 23.058 31.9998 24.7148 31.9998H27.7148C29.3717 31.9998 30.7148 33.3429 30.7148 34.9998V56.9998C30.7148 58.6566 29.3717 59.9998 27.7148 59.9998H24.7148C23.058 59.9998 21.7148 58.6566 21.7148 56.9998V34.9998Z" fill="white"/>
<path d="M107.833 28.3V53.5H102.829V42.808H92.4974V53.5H87.4934V28.3H92.4974V38.884H102.829V28.3H107.833ZM120.423 53.788C118.431 53.788 116.751 53.332 115.383 52.42C114.015 51.484 112.995 50.272 112.323 48.784C111.675 47.272 111.351 45.652 111.351 43.924C111.351 42.196 111.675 40.588 112.323 39.1C112.995 37.588 114.015 36.364 115.383 35.428C116.751 34.492 118.443 34.024 120.459 34.024C123.123 34.024 125.235 34.876 126.795 36.58C128.379 38.284 129.171 40.744 129.171 43.96V45.328H116.139V45.616C116.139 46.768 116.535 47.764 117.327 48.604C118.119 49.42 119.115 49.828 120.315 49.828C121.251 49.828 122.043 49.612 122.691 49.18C123.339 48.748 123.807 48.16 124.095 47.416H128.991C128.487 49.288 127.503 50.824 126.039 52.024C124.575 53.2 122.703 53.788 120.423 53.788ZM124.383 42.088C124.335 40.576 123.951 39.46 123.231 38.74C122.511 38.02 121.563 37.66 120.387 37.66C119.139 37.66 118.155 38.056 117.435 38.848C116.715 39.64 116.331 40.72 116.283 42.088H124.383ZM140.791 56.2C140.455 57.088 140.095 57.868 139.711 58.54C139.327 59.236 138.643 59.908 137.659 60.556C136.699 61.204 135.427 61.528 133.843 61.528C133.171 61.528 132.595 61.468 132.115 61.348C131.635 61.252 131.335 61.192 131.215 61.168V57.676C131.599 57.772 132.115 57.82 132.763 57.82C133.555 57.82 134.191 57.688 134.671 57.424C135.151 57.16 135.535 56.812 135.823 56.38C136.111 55.948 136.399 55.348 136.687 54.58L137.299 53.068L130.459 34.492H135.499L139.603 47.56H139.819L144.139 34.492H149.179L140.791 56.2ZM158.104 53.788C155.752 53.788 153.916 52.888 152.596 51.088C151.276 49.288 150.616 46.912 150.616 43.96C150.616 40.96 151.276 38.56 152.596 36.76C153.94 34.936 155.812 34.024 158.212 34.024C159.82 34.024 161.08 34.396 161.992 35.14C162.904 35.86 163.552 36.628 163.936 37.444H164.224V34.492H169.228V53.5H164.224V50.224H163.936C163.504 51.112 162.832 51.928 161.92 52.672C161.008 53.416 159.736 53.788 158.104 53.788ZM159.94 49.756C161.356 49.756 162.424 49.18 163.144 48.028C163.864 46.876 164.224 45.496 164.224 43.888C164.224 42.28 163.864 40.912 163.144 39.784C162.448 38.656 161.38 38.092 159.94 38.092C158.5 38.092 157.432 38.656 156.736 39.784C156.04 40.912 155.692 42.28 155.692 43.888C155.692 45.52 156.04 46.912 156.736 48.064C157.432 49.192 158.5 49.756 159.94 49.756ZM182.229 53.824C180.213 53.824 178.521 53.356 177.153 52.42C175.785 51.484 174.765 50.26 174.093 48.748C173.445 47.236 173.121 45.616 173.121 43.888C173.121 42.184 173.445 40.588 174.093 39.1C174.765 37.588 175.785 36.364 177.153 35.428C178.521 34.492 180.213 34.024 182.229 34.024C184.773 34.024 186.777 34.756 188.241 36.22C189.729 37.66 190.629 39.484 190.941 41.692H186.081C185.913 40.612 185.505 39.748 184.857 39.1C184.233 38.428 183.369 38.092 182.265 38.092C180.801 38.092 179.721 38.656 179.025 39.784C178.353 40.912 178.017 42.28 178.017 43.888C178.017 45.544 178.353 46.936 179.025 48.064C179.721 49.192 180.801 49.756 182.265 49.756C183.345 49.756 184.209 49.432 184.857 48.784C185.505 48.112 185.913 47.236 186.081 46.156H190.941C190.629 48.364 189.729 50.2 188.241 51.664C186.777 53.104 184.773 53.824 182.229 53.824ZM201.065 53.788C198.713 53.788 196.877 52.888 195.557 51.088C194.237 49.288 193.577 46.912 193.577 43.96C193.577 40.96 194.237 38.56 195.557 36.76C196.901 34.936 198.773 34.024 201.173 34.024C202.781 34.024 204.041 34.396 204.953 35.14C205.865 35.86 206.513 36.628 206.897 37.444H207.185V34.492H212.189V53.5H207.185V50.224H206.897C206.465 51.112 205.793 51.928 204.881 52.672C203.969 53.416 202.697 53.788 201.065 53.788ZM202.901 49.756C204.317 49.756 205.385 49.18 206.105 48.028C206.825 46.876 207.185 45.496 207.185 43.888C207.185 42.28 206.825 40.912 206.105 39.784C205.409 38.656 204.341 38.092 202.901 38.092C201.461 38.092 200.393 38.656 199.697 39.784C199.001 40.912 198.653 42.28 198.653 43.888C198.653 45.52 199.001 46.912 199.697 48.064C200.393 49.192 201.461 49.756 202.901 49.756ZM216.696 34.492H221.628V37.516H221.88C222.192 36.676 222.768 35.968 223.608 35.392C224.448 34.792 225.528 34.492 226.848 34.492C227.352 34.492 227.784 34.54 228.144 34.636L227.928 39.208C227.328 39.04 226.692 38.956 226.02 38.956C224.532 38.956 223.428 39.352 222.708 40.144C221.988 40.912 221.628 42.196 221.628 43.996V53.5H216.696V34.492ZM238.864 53.788C236.872 53.788 235.192 53.332 233.824 52.42C232.456 51.484 231.436 50.272 230.764 48.784C230.116 47.272 229.792 45.652 229.792 43.924C229.792 42.196 230.116 40.588 230.764 39.1C231.436 37.588 232.456 36.364 233.824 35.428C235.192 34.492 236.884 34.024 238.9 34.024C241.564 34.024 243.676 34.876 245.236 36.58C246.82 38.284 247.612 40.744 247.612 43.96V45.328H234.58V45.616C234.58 46.768 234.976 47.764 235.768 48.604C236.56 49.42 237.556 49.828 238.756 49.828C239.692 49.828 240.484 49.612 241.132 49.18C241.78 48.748 242.248 48.16 242.536 47.416H247.432C246.928 49.288 245.944 50.824 244.48 52.024C243.016 53.2 241.144 53.788 238.864 53.788ZM242.824 42.088C242.776 40.576 242.392 39.46 241.672 38.74C240.952 38.02 240.004 37.66 238.828 37.66C237.58 37.66 236.596 38.056 235.876 38.848C235.156 39.64 234.772 40.72 234.724 42.088H242.824Z" fill="white"/>
<defs>
<filter id="filter0_d" x="0.345679" y="0" width="81.3086" height="81.3086" filterUnits="userSpaceOnUse" color-interpolation-filters="sRGB">
<feFlood flood-opacity="0" result="BackgroundImageFix"/>
<feColorMatrix in="SourceAlpha" type="matrix" values="0 0 0 0 0 0 0 0 0 0 0 0 0 0 0 0 0 0 127 0"/>
<feOffset dy="3.65432"/>
<feGaussianBlur stdDeviation="1.82716"/>
<feColorMatrix type="matrix" values="0 0 0 0 0 0 0 0 0 0 0 0 0 0 0 0 0 0 0.25 0"/>
<feBlend mode="normal" in2="BackgroundImageFix" result="effect1_dropShadow"/>
<feBlend mode="normal" in="SourceGraphic" in2="effect1_dropShadow" result="shape"/>
</filter>
</defs>
</svg>
