<svg width="46" height="55" viewBox="0 0 46 55" fill="none" xmlns="http://www.w3.org/2000/svg">
<path d="M17.9919 0.0906067C15.471 0.418556 12.9945 1.35808 10.8553 2.7851C6.96738 5.3821 4.34883 9.51247 3.63871 14.1924C3.45231 15.4067 3.45231 18.0568 3.64759 18.9875C3.6831 19.1648 3.73635 19.1736 4.90804 19.2091C6.07973 19.2357 6.15075 19.2445 6.71884 19.5282C7.4112 19.865 7.99705 20.4677 8.36098 21.2122L8.60952 21.7175L8.6539 25.2274L8.69828 28.7373L9.27525 29.2425C10.0741 29.9427 11.8139 31.095 12.7992 31.5648C13.2519 31.7775 13.6425 31.9548 13.6691 31.9548C13.6957 31.9548 13.7135 29.0741 13.7223 25.5465V19.1471L16.8291 17.0198C18.5423 15.8498 19.9891 14.866 20.0513 14.8305C20.1223 14.7951 21.3916 15.6105 23.3533 16.9578L26.5399 19.1559L26.5666 28.1701L26.5843 37.1842H25.386H24.1877V46.092V54.9998H34.8394H45.5L45.4467 54.6629C45.2958 53.7589 44.5413 52.8637 43.7158 52.6155C43.5117 52.5534 42.6329 52.518 41.4612 52.518H39.5439V44.8245V37.131L39.0113 37.1399L38.4787 37.1487V28.1701V19.1914L37.6355 18.6507L36.7922 18.11V16.683C36.7833 13.9442 36.3129 11.8436 35.1501 9.38838C32.8422 4.51348 28.3063 1.11877 22.8118 0.17038C21.7378 -0.0157547 19.1547 -0.06007 17.9919 0.0906067Z" fill="#555273"/>
<path d="M11.3125 37H30V55H11.3125V37Z" fill="white"/>
<path d="M13.75 14H27V37H13.75V14Z" fill="white"/>
<path d="M17.0418 21.9393C16.376 22.2673 16.3317 22.4091 16.305 24.749L16.2695 26.8142H17.5744H18.8703L18.8437 24.749C18.8171 22.3825 18.7727 22.2318 18.1247 21.9304C17.6543 21.7177 17.4767 21.7177 17.0418 21.9393Z" fill="#555273"/>
<path d="M22.3419 21.8241C22.049 21.8773 21.5608 22.4091 21.4898 22.737C21.4632 22.8966 21.4365 23.8804 21.4365 24.9174V26.8142H22.7059H23.9752L23.9663 24.749C23.9574 22.4091 23.9219 22.2584 23.2562 21.9393C22.8923 21.762 22.7502 21.7443 22.3419 21.8241Z" fill="#555273"/>
<path d="M16.2871 31.9993V34.5254H17.5742H18.8613V31.9993V29.4732H17.5742H16.2871V31.9993Z" fill="#555273"/>
<path d="M21.4365 31.9995V34.5344L22.7059 34.5078L23.9663 34.4812L23.9752 32.0881C23.9752 30.7675 23.9574 29.6418 23.9397 29.5798C23.913 29.5 23.5757 29.4734 22.6703 29.4734H21.4365V31.9995Z" fill="#555273"/>
<path d="M10.0376 44.559C9.30978 45.791 8.64405 46.9255 8.55528 47.0673L8.39551 47.3333L9.87787 47.3244C10.6945 47.3155 13.5793 47.3067 16.2867 47.2978L21.2131 47.2801L22.6333 44.8781C23.4144 43.5485 24.0713 42.4318 24.0802 42.3963C24.0979 42.3608 21.2397 42.3254 17.7335 42.3254H11.3514L10.0376 44.559Z" fill="#555273"/>
<path d="M16.2871 52.4739V55H17.5742H18.8613V52.4739V49.9478H17.5742H16.2871V52.4739Z" fill="#555273"/>
<path d="M5.30654 52.66C5.10238 52.7398 4.7562 52.9525 4.53429 53.1475L4.12598 53.5109V54.2555V55H7.72093H11.3159V53.7591V52.5182L8.50206 52.5271C6.24745 52.5271 5.60834 52.5625 5.30654 52.66Z" fill="#555273"/>
<path d="M4 47H5V55H4V47Z" fill="white"/>
<path d="M0 22C0 20.3431 1.34315 19 3 19H6C7.65685 19 9 20.3431 9 22V44C9 45.6569 7.65685 47 6 47H3C1.34315 47 0 45.6569 0 44V22Z" fill="white"/>
</svg>
