<svg height="512" viewBox="0 0 512 512" width="512" xmlns="http://www.w3.org/2000/svg"><g><path d="m304 32h-182.09a63.966 63.966 0 1 0 -89.91 89.91v310.09a8 8 0 0 0 8 8h8v16a8 8 0 0 0 8 8h8v32a8 8 0 0 0 8 8h32a8 8 0 0 0 8-8v-32h8a8 8 0 0 0 8-8v-16h128v16a8 8 0 0 0 8 8h8v32a8 8 0 0 0 8 8h32a8 8 0 0 0 8-8v-32h8a8 8 0 0 0 8-8v-16h8a8 8 0 0 0 8-8v-352a48.051 48.051 0 0 0 -48-48zm-280 40a48 48 0 1 1 48 48 48.051 48.051 0 0 1 -48-48zm72 416h-16v-24h16zm16-40h-48v-8h48zm-16-24v-216a72.083 72.083 0 0 1 72-72h48a72.083 72.083 0 0 1 72 72v216zm208 64h-16v-24h16zm16-40h-48v-8h48zm16-24h-32v-216a88.1 88.1 0 0 0 -88-88h-48a88.1 88.1 0 0 0 -88 88v216h-32v-292.69a63.96 63.96 0 0 0 83.31-83.31h172.69a32.03 32.03 0 0 1 32 32z"/><path d="m192 160a72 72 0 1 0 72 72 72.081 72.081 0 0 0 -72-72zm0 128a56 56 0 0 1 -8-111.419v15.419a8 8 0 0 0 16 0v-15.419a56 56 0 0 1 -8 111.419z"/><path d="m192 312a48 48 0 1 0 48 48 48.055 48.055 0 0 0 -48-48zm0 80a32 32 0 1 1 32-32 32.036 32.036 0 0 1 -32 32z"/><path d="m192 336a24 24 0 1 0 24 24 24.027 24.027 0 0 0 -24-24zm0 32a8 8 0 1 1 8-8 8.009 8.009 0 0 1 -8 8z"/><path d="m504 224a72 72 0 1 0 -111.13 60.39 7.98 7.98 0 0 0 -.87 3.61v24a8 8 0 0 0 8 8v136a8 8 0 0 0 8 8v32a8 8 0 0 0 8 8h32a8 8 0 0 0 8-8v-32a8 8 0 0 0 8-8v-136a8 8 0 0 0 8-8v-24a7.98 7.98 0 0 0 -.87-3.61 71.99 71.99 0 0 0 32.87-60.39zm-64 264h-16v-24h16zm8-40h-32v-128h32zm8-144h-48v-8h48zm-24-24a56 56 0 1 1 56-56 56.062 56.062 0 0 1 -56 56z"/><circle cx="432" cy="192" r="8"/><circle cx="432" cy="256" r="8"/><circle cx="464" cy="224" r="8"/><circle cx="400" cy="224" r="8"/><path d="m312 64h-56a8 8 0 0 0 0 16h56a8 8 0 0 0 0-16z"/><path d="m232 64h-8a8 8 0 0 0 0 16h8a8 8 0 0 0 0-16z"/><circle cx="72" cy="96" r="8"/><path d="m93.336 72.15a32 32 0 0 0 -42.672 0 8 8 0 0 0 10.671 11.922 16 16 0 0 1 21.33 0 8 8 0 0 0 10.671-11.922z"/><path d="m45.335 66.183a40 40 0 0 1 53.33 0 8 8 0 1 0 10.67-11.922 56 56 0 0 0 -74.67 0 8 8 0 1 0 10.67 11.922z"/></g></svg>